<?xml version="1.0" encoding="UTF-8" standalone="no"?>
<!-- Created with Inkscape (http://www.inkscape.org/) -->

<svg
   xmlns:dc="http://purl.org/dc/elements/1.1/"
   xmlns:cc="http://creativecommons.org/ns#"
   xmlns:rdf="http://www.w3.org/1999/02/22-rdf-syntax-ns#"
   xmlns:svg="http://www.w3.org/2000/svg"
   xmlns="http://www.w3.org/2000/svg"
   xmlns:sodipodi="http://sodipodi.sourceforge.net/DTD/sodipodi-0.dtd"
   xmlns:inkscape="http://www.inkscape.org/namespaces/inkscape"
   width="209mm"
   height="229mm"
   viewBox="0 0 740.55118 811.41732"
   id="svg2"
   version="1.1"
   inkscape:version="0.91 r13725"
   sodipodi:docname="growberry_pi.svg">
  <defs
     id="defs4" />
  <sodipodi:namedview
     id="base"
     pagecolor="#ffffff"
     bordercolor="#666666"
     borderopacity="1.0"
     inkscape:pageopacity="0.0"
     inkscape:pageshadow="2"
     inkscape:zoom="0.37071112"
     inkscape:cx="-98.973815"
     inkscape:cy="584.1182"
     inkscape:document-units="px"
     inkscape:current-layer="g4639"
     showgrid="false"
     inkscape:snap-bbox="true"
     inkscape:snap-global="true"
     inkscape:window-width="1276"
     inkscape:window-height="755"
     inkscape:window-x="4"
     inkscape:window-y="1"
     inkscape:window-maximized="1"
     inkscape:bbox-nodes="false"
     inkscape:snap-bbox-edge-midpoints="false"
     inkscape:snap-intersection-paths="true"
     inkscape:snap-nodes="false" />
  <metadata
     id="metadata7">
    <rdf:RDF>
      <cc:Work
         rdf:about="">
        <dc:format>image/svg+xml</dc:format>
        <dc:type
           rdf:resource="http://purl.org/dc/dcmitype/StillImage" />
        <dc:title></dc:title>
      </cc:Work>
    </rdf:RDF>
  </metadata>
  <g
     inkscape:label="Layer 1"
     inkscape:groupmode="layer"
     id="layer1"
     style="display:inline;opacity:0.69899998"
     transform="translate(0,-240.94488)">
    <path
       style="fill:none;fill-rule:evenodd;stroke:#000000;stroke-width:5.06624985;stroke-linecap:butt;stroke-linejoin:miter;stroke-miterlimit:4;stroke-dasharray:none;stroke-opacity:1"
       d="m 1399.7448,-190.00273 -304.4609,0.78711 c 0,0 -97.46121,-8.14733 -101.09571,86.15429 -3.6345,94.3016346 -0.5859,282.10157 -0.5859,282.10156 0,0 -0.3297,57.18371 73.42571,57.01172 l 68.9434,-0.16015 c 61.4714,0 48.4827,-65.22132 49.5664,-124.18946 -37.8046,-0.27177 -78.3295,-0.5997 -124.5683,-1.47265 l 0.2656,-118.7831954 c 0,0 5.3785,-69.8548496 161.5957,-71.5351596 0,0 177.2888,3.08697 176.9141,-109.914065 z m -214.207,301.70507 c 43.2021,0.31058 82.7994,0.55445 122.3691,1.42579 0.078,-9.28588 0.1672,-19.315778 0.2364,-27.910158 -42.592,-0.31524 -83.072,-0.63007 -121.9493,-0.94531 z m 0.6562,-28.626168 1.7618,-72.350387 c 0,0 -5.4891,-46.55121 30.0195,-73.03711 -67.8558,2.50908 -128.891,20.507969 -129.0137,56.8574196 l -0.2441,88.9550774 c 34.3621,0.25726 65.7497,-0.68227 97.4765,-0.425 z m 32.9778,-145.387497 c 80.2951,-2.96904 168.9342,15.758309 178.7273,51.50586 l 12.2227,0.0781 0.6113,170.121085 94.2832,-0.20312 c 82.2878,-0.23199 70.8239,-235.411195 -1.666,-236.400395 l -218.1348,-2.97653 c -31.3844,-0.42827 -51.5328,7.05128 -66.0437,17.875 z m 178.7273,51.50586 -89.0293,-0.57031 c 0,0 -0.2756,40.57631 -0.7265,96.593747 7.6149,0.0564 14.0094,0.11356 21.9023,0.16992 l -0.75,28.269528 c -7.1504,-0.20228 -14.271,-0.37256 -21.3887,-0.52929 -0.3197,38.19435 -0.6962,79.51765 -1.1367,122.19531 34.772,-3.13295 87.6839,-18.07447 88.9278,-80.20117 0,-30.53839 2.2011,-112.296095 2.2011,-165.927735 z m -91.1289,246.128905 c -17.0803,1.53893 -29.7969,0.23828 -29.7969,0.23828 l -141.0019,0.33008 -1.4094,161.47542 c 117.4128,0.679 171.2505,-59.3025 172.2082,-162.04378 z"
       id="path4356"
       inkscape:connector-curvature="0"
       sodipodi:nodetypes="ccscscccccccccccccccccccccccssccccccccccccccc" />
    <g
       id="g3447"
       transform="translate(214.94159,-133.95027)">
      <path
         inkscape:connector-curvature="0"
         id="path3397"
         d="m 1434.19,640.65676 c 0.2543,-47.67331 2.0088,-59.12345 11.7137,-76.44525 4.3042,-7.68241 17.1352,-21.49505 21.0623,-22.67382 2.9569,-0.88754 32.2319,1.28566 50.2578,3.73083 30.4521,4.13076 59.9112,11.79169 75.8861,19.73445 12.8676,6.39778 27.8366,22.29728 24.216,25.72134 -0.3909,0.36969 -15.8524,1.04793 -34.3589,1.50719 -18.5065,0.45926 -33.7836,0.89704 -33.9491,0.97284 -0.1655,0.0758 -0.034,4.82464 0.2928,10.55297 0.3266,5.72835 0.8948,24.20782 1.2628,41.06552 l 0.6691,30.65034 -58.6191,0 -58.6192,0 0.1857,-34.81641 z"
         style="fill:#a0a0a0;stroke:none;stroke-width:1px;stroke-linecap:butt;stroke-linejoin:miter;stroke-opacity:1" />
      <path
         inkscape:connector-curvature="0"
         id="path3401"
         d="m 1434.2159,656.29263 c 0.1089,-31.81564 2.1398,-63.33361 4.6939,-72.84573 1.3066,-4.86621 2.3931,-9.37852 2.4143,-10.02735 0.021,-0.64882 0.3799,-1.44511 0.797,-1.76952 0.4171,-0.32441 2.4813,-3.46774 4.5871,-6.98516 2.1058,-3.51743 7.6622,-10.01317 12.3476,-14.43497 l 8.5189,-8.03966 9.8295,-0.15195 c 5.4063,-0.0835 11.304,0.17087 13.1061,0.56541 1.802,0.39456 7.6998,0.94239 13.106,1.21742 5.4062,0.27503 10.7142,0.79704 11.7954,1.16005 1.0813,0.36299 5.2097,0.80524 9.1742,0.98277 3.9646,0.17754 7.5107,0.68111 7.8802,1.11905 0.3696,0.43794 3.6133,0.9688 7.2083,1.17969 3.5951,0.21088 6.8314,0.68153 7.1918,1.04586 0.3604,0.36434 7.0247,2.13942 14.8095,3.94465 7.7848,1.80523 17.7413,4.5476 22.1256,6.09415 4.3843,1.54656 8.4833,2.52714 9.109,2.17909 0.6257,-0.34806 1.1376,-0.10642 1.1376,0.53698 0,1.03102 1.2711,1.64142 5.8087,2.7893 1.3164,0.33303 5.8862,3.66997 14.417,10.52758 6.5899,5.29739 12.2421,13.74346 9.6785,14.46247 -2.3055,0.64662 -38.8834,2.16044 -56.1163,2.32244 l -13.7613,0.12936 0.097,12.97657 c 0.053,7.13711 0.348,25.58462 0.6553,40.99445 l 0.5588,28.01789 -60.6154,-3e-4 -60.6154,-2.9e-4 0.062,-17.99025 z"
         style="fill:#008080" />
      <path
         inkscape:connector-curvature="0"
         id="path3403"
         d="m 1294.8601,630.06738 0.8218,-44.21548 3.1498,-5.08282 c 11.2255,-18.1152 42.6664,-30.68398 91.9111,-36.74239 14.4674,-1.77986 75.94,-4.83032 77.0069,-3.82131 0.2833,0.26792 -2.3711,3.60625 -5.8986,7.41852 -7.9813,8.62555 -13.0211,16.87078 -17.1724,28.09456 -2.7588,7.45874 -3.3714,11.83039 -4.3045,30.71705 -0.5985,12.11135 -1.1099,32.33165 -1.1367,44.934 l -0.049,22.91337 -72.5754,0 -72.5753,0 0.8219,-44.2155 z"
         style="fill:#008080" />
      <path
         inkscape:connector-curvature="0"
         id="path3405"
         d="m 1339.7572,817.05666 c -3.8073,-0.50484 -28.4739,-0.94096 -54.8144,-0.96915 -26.3407,-0.0282 -48.8628,-0.40357 -50.0493,-0.83415 -1.1865,-0.43059 -3.2816,-0.50485 -4.6558,-0.165 -1.3741,0.33983 -2.4984,0.25915 -2.4984,-0.17929 0,-0.43846 -2.7912,-1.42423 -6.2027,-2.19061 -16.3294,-3.66836 -30.4125,-13.70933 -36.6983,-26.16509 l -3.9138,-7.75535 0.2018,-127.54435 c 0.1857,-117.42136 0.6043,-155.21084 1.7646,-159.31411 0.6568,-2.32221 4.7024,-21.51629 4.97,-23.57941 0.1274,-0.982 0.5759,-2.05327 0.9968,-2.3806 0.4209,-0.32734 1.8997,-3.00552 3.2863,-5.95152 3.5007,-7.4377 12.8034,-18.99458 19.4119,-24.11582 6.0231,-4.66758 19.1508,-11.59332 21.975,-11.59332 0.9681,0 1.7602,-0.42087 1.7602,-0.93525 0,-1.34071 0.3085,-1.35474 45.3106,-2.06097 43.6448,-0.68493 53.2107,-1.26376 50.243,-3.04016 -1.222,-0.73151 -0.1205,-1.07475 3.4891,-1.08723 2.9011,-0.01 5.6549,0.56327 6.1193,1.27399 0.6008,0.91932 19.4179,1.05858 65.2083,0.48256 35.4001,-0.44532 79.6562,-0.69599 98.3468,-0.55705 39.9243,0.29679 97.027,-1.24048 92.5092,-2.49045 -2.9699,-0.82172 -2.9227,-0.87724 0.841,-0.98924 7.6655,-0.22808 7.7489,-0.0514 5.725,12.13241 -1.0014,6.02793 -1.8972,12.03116 -1.9907,13.34049 -0.094,1.30934 -0.4562,2.64843 -0.8059,2.97576 -0.3498,0.32734 -2.8856,4.88025 -5.6352,10.11759 -6.4092,12.2079 -21.8599,27.1783 -36.5285,35.39299 -18.5713,10.40027 -49.6505,20.57003 -70.1624,22.95864 -3.9804,0.46352 -7.2371,1.20912 -7.2371,1.6569 0,0.44778 -1.9823,0.59527 -4.4052,0.32777 -2.8145,-0.31074 -4.4052,0.0159 -4.4052,0.90442 0,0.76493 -0.5404,1.07489 -1.201,0.68881 -1.7835,-1.04243 -31.5446,0.75633 -30.8214,1.86285 0.3409,0.52172 -4.6334,0.84407 -11.054,0.71633 -10.4838,-0.20857 -18.3628,0.25691 -36.2172,2.13966 -5.4503,0.57473 -7.7766,0.90205 -16.6809,2.34706 -2.2475,0.36474 -5.3328,0.66557 -6.856,0.6685 -1.5232,0.003 -3.0989,0.50938 -3.5015,1.12544 -0.4026,0.61605 -1.5707,0.81575 -2.5957,0.44376 -1.025,-0.37198 -2.6165,-0.0854 -3.5367,0.63681 -0.9202,0.72224 -2.0081,0.99634 -2.4175,0.60913 -0.4094,-0.3872 -1.4645,-0.28316 -2.3445,0.23122 -0.8801,0.51438 -3.1139,1.09196 -4.9641,1.28351 -1.8501,0.19156 -4.9909,0.9815 -6.9794,1.75545 -1.9885,0.77395 -4.3234,1.29781 -5.1887,1.16412 -0.8653,-0.13369 -1.5733,0.34766 -1.5733,1.06966 0,0.722 -0.5414,0.99626 -1.2032,0.60946 -0.6618,-0.38679 -3.2208,0.0939 -5.6867,1.06836 -2.4659,0.97438 -4.7862,1.75178 -5.1562,1.72754 -0.3701,-0.0243 -2.059,0.81483 -3.7531,1.86461 -1.6941,1.04977 -3.0802,1.60329 -3.0802,1.23003 0,-0.37324 -5.0974,1.81119 -11.3277,4.85429 -6.2302,3.0431 -11.3276,6.04594 -11.3276,6.67297 0,0.62702 -0.4996,0.84806 -1.1101,0.49119 -1.2466,-0.7286 -18.8122,14.94511 -21.9135,19.55323 -1.1014,1.63667 -2.324,4.58268 -2.7168,6.54668 -2.2976,11.48857 -3.3464,21.61817 -3.3272,32.13822 0.05,27.58603 -0.994,80.25203 -1.7144,86.46869 l -0.7786,6.71826 18.5736,0.8781 c 10.2155,0.48294 48.6597,0.63477 85.4315,0.33739 l 66.858,-0.5407 -0.4788,55.38538 c -0.2633,30.46197 -0.7846,55.67568 -1.1585,56.03048 -0.5879,0.55793 -32.3236,1.62459 -72.2165,2.42728 -8.0781,0.16254 -10.9362,0.54974 -8.8104,1.1936 3.0462,0.92261 3.0262,0.95144 -0.6293,0.90405 -2.0768,-0.0269 -6.891,-0.46198 -10.6984,-0.96682 z"
         style="fill:#008080" />
      <path
         inkscape:connector-curvature="0"
         id="path3407"
         d="m 1557.7301,808.61608 c -1.7667,-4.66391 -2.4418,-16.46965 -2.4262,-42.42636 0.01,-15.72228 -0.4488,-36.93429 -1.0184,-47.13778 l -1.0356,-18.55184 4.3405,-0.19025 c 2.3872,-0.10464 5.1286,-0.16844 6.0919,-0.14178 1.2812,0.0355 1.7075,-3.68478 1.5878,-13.85377 -0.174,-14.77969 -0.8939,-16.22202 -8.0964,-16.22202 -2.5921,0 -2.8512,-1.43782 -3.8895,-21.59152 -1.4195,-27.54968 -1.3603,-25.0867 -1.0356,-43.05388 l 0.2779,-15.38026 13.3831,-0.91299 c 7.3608,-0.50212 23.9296,-0.97079 36.8197,-1.04144 22.2792,-0.12213 23.4749,-0.008 24.2146,2.30437 0.428,1.33806 0.8371,11.1911 0.9093,21.89562 0.072,10.70453 0.5962,29.56583 1.1647,41.91403 0.5685,12.34818 0.5992,40.2651 0.068,62.03758 -0.8885,36.42711 -1.2209,40.21733 -4.1659,47.49307 -7.4193,18.32949 -20.647,30.59377 -42.7455,39.6321 -14.9001,6.09415 -23.4255,7.9172 -24.4446,5.22712 z"
         style="fill:#008080" />
      <path
         inkscape:connector-curvature="0"
         id="path3415"
         d="m 1642.6064,816.82185 c -0.413,-11.29301 -1.0456,-53.47443 -1.4058,-93.73649 -0.3601,-40.26205 -1.0048,-85.38948 -1.4325,-100.28317 l -0.7776,-27.07943 -4.6751,0 c -4.3959,0 -4.7692,-0.29658 -6.2483,-4.9654 -3.8566,-12.17364 -24.6887,-25.23609 -52.6633,-33.02177 -23.483,-6.53561 -66.9151,-13.19062 -86.1102,-13.19449 -3.9395,-7.9e-4 -7.4914,-0.5043 -7.8931,-1.1189 -1.0093,-1.54446 13.0958,-7.7201 24.4957,-10.72493 13.925,-3.67042 31.363,-4.54803 133.8204,-6.73482 74.1733,-1.58312 93.9573,-1.68781 98.0822,-0.51904 15.8534,4.49194 30.5742,31.52881 39.2374,72.06481 6.3083,29.51715 7.6288,44.6428 7.6378,87.48739 0.01,42.35726 -0.9831,54.87607 -6.3918,80.66288 -6.0636,28.90878 -14.5281,48.60666 -25.9787,60.45536 -11.0583,11.44271 -9.9281,11.24076 -62.9097,11.24076 l -46.0365,0 -0.7509,-20.53276 z"
         style="fill:#ffcc00" />
      <path
         inkscape:connector-curvature="0"
         id="path3417"
         d="m 1431.019,747.23508 c 0.4685,-35.14966 1.1869,-66.83738 1.5964,-70.41715 l 0.7447,-6.50869 27.2029,0.96434 c 14.9617,0.5304 40.6001,0.96599 56.9743,0.96799 l 29.7713,0.004 0.7151,15.14459 c 0.3933,8.32955 1.0482,38.84754 1.4555,67.8178 l 0.7405,52.67318 -12.9767,0.8391 c -7.1372,0.4615 -34.149,1.1956 -60.0263,1.6314 l -47.0495,0.7923 0.8518,-63.90848 z"
         style="fill:#ffcc00" />
      <path
         inkscape:connector-curvature="0"
         id="path3419"
         d="m 1472.3049,700.76928 c 10.2529,-0.2003 26.678,-0.19984 36.5002,9.9e-4 9.8221,0.20087 1.4333,0.36475 -18.6418,0.36419 -20.0751,-5.6e-4 -28.1114,-0.16491 -17.8584,-0.36521 z"
         style="fill:#ffcc00" />
      <path
         inkscape:connector-curvature="0"
         id="path3423"
         d="m 1387.4971,937.65232 c -0.048,-9.18315 -1.0837,-39.99887 -2.3008,-68.47939 -1.2171,-28.48056 -1.7357,-52.33216 -1.1525,-53.0036 0.5831,-0.67143 4.6819,-2.76505 9.1083,-4.65249 14.4563,-6.16424 27.0511,-20.91467 32.6843,-38.27837 2.6559,-8.18632 4.2965,-24.43093 5.316,-52.63608 0.4721,-13.0607 1.3673,-24.01916 1.9892,-24.35212 0.622,-0.33296 26.6128,-1.05889 57.7572,-1.61316 31.1444,-0.55428 57.313,-1.12431 58.1525,-1.26673 1.8987,-0.32216 2.7075,116.45176 1.1765,169.87239 l -0.9978,34.81943 -4.0642,7.51444 c -3.0343,5.61034 -6.6906,9.78671 -14.4297,16.48208 -8.6882,7.51654 -12.3007,9.76299 -22.3227,13.88193 -26.8001,11.01461 -54.0838,15.6567 -104.1515,17.72079 l -16.6768,0.68746 -0.088,-16.69658 z"
         style="fill:#ffcc00" />
    </g>
    <path
       style="fill:#ffcc00"
       d=""
       id="path3468"
       inkscape:connector-curvature="0" />
    <path
       style="fill:#0000ff;fill-opacity:1"
       d="m -318.02928,1512.7375 c -21.56662,-5.081 -35.35102,-16.3983 -40.28703,-33.0765 -1.73895,-5.8757 -2.29392,-54.9716 -1.72391,-152.5042 0.83419,-142.7345 0.8831,-143.9658 6.37079,-160.3862 4.34041,-12.9876 8.19715,-19.2145 17.92714,-28.9445 21.07184,-21.0718 15.76292,-20.4342 170.13323,-20.4342 l 134.14837,0 -1.545,11.272 c -5.045,36.8072 -38.2155,65.1952 -92.1716,78.8823 -15.5142,3.9355 -35.25845,6.5204 -62.49756,8.1821 -62.08402,3.7874 -81.73311,12.1158 -88.8175,37.6456 -1.38206,4.9805 -3.22845,39.8953 -4.10309,77.5885 l -1.59024,68.5331 33.11911,1.5883 c 18.21551,0.8736 39.96068,1.5884 48.3226,1.5884 l 15.20349,0 -0.0416,25.7711 c -0.0435,26.9209 -4.22082,52.7079 -10.50783,64.8657 -2.03194,3.9293 -7.04529,10.4951 -11.14078,14.5906 l -7.44635,7.4463 -47.16253,-0.2408 c -25.93939,-0.1326 -51.22476,-1.1979 -56.1897,-2.3676 z"
       id="path3458"
       inkscape:connector-curvature="0" />
    <path
       style="fill:#0000ff;fill-opacity:1"
       d="m -88.942463,1444.4498 c -0.14233,-37.3171 -1.52125,-88.2246 -3.06429,-113.1278 l -2.80555,-45.2785 38.01167,-1.6825 c 20.90641,-0.9254 39.45427,-0.7082 41.21746,0.4827 1.76319,1.1909 2.7085,42.0292 2.10066,90.7517 l -1.10513,88.5864 -9.8215,12.5116 c -12.62188,16.079 -27.23531,24.8209 -55.01256,32.9088 l -9.262,2.6969 -0.25876,-67.8493 z"
       id="path3460"
       inkscape:connector-curvature="0" />
    <path
       style="fill:#0000ff;fill-opacity:1"
       d="m -190.16799,1350.5306 c 0.0919,-11.537 1.08732,-33.3826 2.21202,-48.5456 2.2936,-30.9221 8.15946,-45.2768 24.13443,-59.0607 l 8.71362,-7.5186 28.70364,2.0284 c 50.090187,3.5396 92.870967,17.3696 107.229747,34.6647 10.3275197,12.4395 9.16967,13.105 -22.79773,13.105 l -29.07781,0 1.34667,43.1517 1.34668,43.1516 -60.989187,0 -60.98919,0 0.16711,-20.9765 z"
       id="path3462"
       inkscape:connector-curvature="0" />
    <path
       style="fill:#0000ff;fill-opacity:1"
       d="m -238.88069,1369.7355 -13.78456,-0.865 0,-41.9103 c 0,-45.8434 1.61687,-53.5195 13.66298,-64.8647 12.87727,-12.1279 51.98658,-24.8379 76.42761,-24.8379 8.68687,0 8.74016,0.06 4.8162,5.3939 -2.18233,2.9667 -7.42436,12.4061 -11.64896,20.9765 l -7.68108,15.5826 -0.88428,46.1482 -0.88427,46.1483 -23.11955,-0.4533 c -12.71575,-0.2493 -29.32259,-0.8425 -36.90409,-1.3183 z"
       id="path3464"
       inkscape:connector-curvature="0" />
    <path
       style="fill:#ffcc00"
       d="m 7.77363,1433.2379 c -0.78476,-8.2407 -2.03586,-40.8742 -2.78022,-72.5187 -0.74436,-31.6445 -1.89503,-61.0416 -2.55704,-65.3268 -1.12091,-7.2556 -1.84774,-7.7913 -10.57182,-7.7913 -8.40484,0 -9.79058,-0.8902 -13.47636,-8.6574 -10.21625,-21.5291 -51.79161,-38.3813 -106.18983,-43.0429 l -20.17384,-1.7287 8.18727,-4.1282 c 15.74556,-7.939 32.89602,-9.5059 132.16855,-12.0748 113.57319,-2.939 111.10671,-3.2517 124.17612,15.744 16.51447,24.003 24.43116,57.7539 24.44886,104.2316 0.0216,56.2887 -11.60463,91.4413 -34.95058,105.677 -6.68582,4.0768 -12.43491,4.5825 -52.18393,4.5905 l -44.67035,0.01 -1.42683,-14.9832 z"
       id="path3466"
       inkscape:connector-curvature="0" />
    <path
       style="fill:#ffcc00"
       d="m -226.18706,1517.2267 c 11.75967,-17.41 16.87397,-42.5545 19.69222,-96.817 l 2.53988,-48.9026 50.5609,0.045 c 27.80849,0.025 53.00847,0.9522 55.999936,2.0607 l 5.43904,2.0154 -0.64441,73.3111 -0.64442,73.3111 -9.589246,2.3498 c -5.27409,1.2924 -36.72215,2.4359 -69.88459,2.5409 l -60.29533,0.1911 6.82602,-10.1058 z"
       id="path3472"
       inkscape:connector-curvature="0" />
    <path
       style="fill:#ffcc00"
       d="m -246.04942,1667.3278 c -1.05025,-1.745 -5.41717,-117.3747 -5.41717,-143.4389 0,-5.8183 1.2477,-7.3559 7.19194,-8.863 3.95557,-1.003 39.82617,-2.1503 79.71245,-2.5497 l 72.520506,-0.7262 -0.002,44.5225 c -0.001,34.3036 -0.87202,47.0766 -3.79324,55.6499 -7.702996,22.6071 -33.461036,40.6123 -71.131206,49.7218 -21.49298,5.1975 -76.97411,9.1849 -79.0815,5.6836 z"
       id="path3474"
       inkscape:connector-curvature="0" />
    <circle
       style="fill:#ffffff"
       id="path3487"
       cx="-145.03746"
       cy="1302.8815"
       r="25.171791" />
    <circle
       r="25.171791"
       cy="1343.6357"
       cx="68.323425"
       id="circle3509"
       style="fill:#ffffff" />
    <path
       sodipodi:nodetypes="ccscscsscccccccc"
       inkscape:connector-curvature="0"
       id="path3537"
       d="m -402.23549,-142.03746 -285.28689,0.73865 c 0,0 -91.32286,-7.65111 -94.72842,80.900147 -3.40556,88.55125 -0.54808,264.899593 -0.54808,264.899593 0,0 -0.31072,53.6967 68.79966,53.5352 l 196.72432,-0.4597 c 0,0 117.16895,9.04 116.04178,-77.93109 l -1.90295,-146.827803 c -0.88016,-67.9113 -290.05107,-78.64789 -290.31072,-1.55997 l -0.22781,83.530613 c 78.70673,0.59052 143.60848,1.18105 226.12838,1.77156 l -0.70206,26.54523 c -76.54311,-2.16995 -149.68152,-1.2931 -251.42693,-3.21807 l 0.2482,-111.540103 c 0,0 5.04001,-65.59561 151.4187,-67.17346 0,0 166.12397,2.8996 165.77282,-103.210797 z"
       style="fill:none;fill-rule:evenodd;stroke:#000000;stroke-width:9.875;stroke-linecap:butt;stroke-linejoin:round;stroke-miterlimit:4;stroke-dasharray:none;stroke-opacity:1" />
    <g
       id="g4347"
       transform="translate(-363.79987,266.64598)"
       style="stroke:#ffcb00;stroke-width:12;stroke-miterlimit:4;stroke-dasharray:none;stroke-opacity:1">
      <path
         sodipodi:nodetypes="ccscscsscccccccc"
         inkscape:connector-curvature="0"
         id="path3539"
         d="m -110.16334,566.64661 -285.28689,0.73865 c 0,0 -91.32286,-7.65111 -94.72842,80.90015 -3.40556,88.55125 -0.54808,264.89959 -0.54808,264.89959 0,0 -0.31072,53.6967 68.79966,53.5352 l 196.72432,-0.4597 c 0,0 117.16895,9.04 116.04178,-77.93109 l -1.90295,-146.8278 c -0.88016,-67.9113 -290.05107,-78.64789 -290.31072,-1.55997 l -0.22781,83.53061 c 78.70673,0.59052 143.60848,1.18105 226.12838,1.77156 l -0.70206,26.54523 c -76.54311,-2.16995 -149.68152,-1.2931 -251.42693,-3.21807 l 0.2482,-111.5401 c 0,0 5.04001,-75.18486 151.4187,-76.76271 0,0 166.12397,-6.68966 165.77282,-93.62155 z"
         style="fill:#007b7e;fill-opacity:1;fill-rule:evenodd;stroke:#ffcb00;stroke-width:12;stroke-linecap:butt;stroke-linejoin:miter;stroke-miterlimit:4;stroke-dasharray:none;stroke-opacity:1" />
      <ellipse
         id="path4345"
         style="fill:#ffffff;fill-opacity:1;stroke:#ffcb00;stroke-width:12;stroke-miterlimit:4;stroke-dasharray:none;stroke-opacity:1"
         ry="28.767759"
         rx="26.370447"
         cy="757.49268"
         cx="-328.43195" />
    </g>
    <path
       style="fill:none;fill-rule:evenodd;stroke:#000000;stroke-width:9.875;stroke-linecap:butt;stroke-linejoin:round;stroke-miterlimit:4;stroke-dasharray:none;stroke-opacity:1"
       d="m -400.51219,92.193629 c 0,0 43.98022,-7.304776 45.94162,-89.3929149 l 2.85714,-119.5763441 c 0,0 -10.23545,-86.75436 91.1341,-85.36812 l 204.396715,2.79514 c 67.92449,0.92887 78.6657,221.766154 1.5604,221.983994 l -88.344325,0.19112 -0.57327,-159.746804 -94.87471,-0.60966 c 0,0 -0.87233,131.2177038 -2.14322,249.65194 0,0 15.12101,138.53192 -154.46034,135.29014 z"
       id="path4351"
       inkscape:connector-curvature="0"
       sodipodi:nodetypes="cscssccccccc" />
    <path
       id="path4359"
       d="m 1420.5757,735.24669 -304.4609,0.78711 c 0,0 -97.4613,-8.14734 -101.0958,86.15425 -3.6344,94.3017 -0.5859,282.10165 -0.5859,282.10165 0,0 -0.3297,57.1837 73.4258,57.0117 l 68.9434,-0.1601 -0.094,-2.627 c 0,0 46.936,-7.7784 49.0292,-95.1973 l 0.6309,-26.3652 c -37.8046,-0.2718 -78.3295,-0.5997 -124.5684,-1.4726 l 0.2657,-118.78325 c 0,0 5.3785,-69.8549 161.5957,-71.5352 0,0 177.2888,3.087 176.914,-109.91406 z m -214.207,301.70511 c 43.202,0.3106 82.7994,0.5545 122.3691,1.4258 0.078,-9.2859 0.1671,-19.3158 0.2363,-27.9102 -42.592,-0.3152 -83.0719,-0.63 -121.9492,-0.9453 l -0.6562,27.4297 z m 0.6562,-27.4297 1.7617,-73.54694 c 0,0 -5.4891,-46.55121 30.0196,-73.03711 -67.8558,2.5091 -128.891,20.508 -129.0137,56.8575 l -0.2442,88.95505 c 34.3622,0.2573 65.7498,0.5143 97.4766,0.7715 z m 31.7813,-146.58405 c 80.2951,-2.969 170.1307,15.7583 179.9238,51.5059 l 12.2226,0.078 0.6114,170.12115 94.2832,-0.2031 c 82.2877,-0.232 70.8238,-235.41125 -1.6661,-236.40045 l -218.1347,-2.9766 c -31.3844,-0.4282 -52.7293,7.0513 -67.2402,17.875 z m 179.9238,51.5059 -89.0293,-0.5703 c 0,0 -0.2757,40.57631 -0.7266,96.59375 7.615,0.056 14.0095,0.1136 21.9024,0.17 l -0.75,28.2695 c -7.1505,-0.2023 -14.271,-0.3726 -21.3887,-0.5293 -0.3197,38.1943 -0.6962,79.5176 -1.1367,122.1953 34.7719,-3.1329 87.7217,-18.0977 88.9277,-80.2012 l 3.086,-158.91405 c 0.047,-2.406 -0.2629,-4.7437 -0.8848,-7.0137 z m -91.1289,246.12895 c -17.0803,1.5389 -29.7969,0.2383 -29.7969,0.2383 l -141.0019,0.3301 5.7695,162.6718 c 180.9793,3.4523 164.8418,-144.0761 164.8418,-144.0761 0.069,-6.3775 0.1211,-12.7368 0.1875,-19.1641 z"
       style="fill:none;fill-rule:evenodd;stroke:#000000;stroke-width:6.25;stroke-linecap:butt;stroke-linejoin:miter;stroke-miterlimit:4;stroke-dasharray:none;stroke-opacity:1"
       inkscape:connector-curvature="0" />
  </g>
  <g
     inkscape:groupmode="layer"
     id="layer12"
     inkscape:label="V2.0"
     style="display:none"
     sodipodi:insensitive="true"
     transform="translate(0,-240.94488)">
    <g
       inkscape:groupmode="layer"
       id="layer10"
       inkscape:label="Berry"
       style="display:inline">
      <path
         style="fill:#cc0000;fill-opacity:1;fill-rule:evenodd;stroke:none;stroke-width:1px;stroke-linecap:butt;stroke-linejoin:miter;stroke-opacity:1"
         d="m 217.26812,854.23122 c -4.57842,38.12339 -4.35192,73.62594 69.15612,69.15653 l 242.7244,0 c 73.58009,1.07481 142.02706,-7.13901 141.02403,-141.02438 l 3.4e-4,-276.62456 c -3.4e-4,-85.39081 -368.83281,-96.4827 -368.83287,-1.7e-4 l 6e-5,153.22885 250.86044,-3.4e-4 -1.7e-4,63.73182 -299.67645,1.7e-4 1.2e-4,-249.50429 C 252.52409,414.30784 374.03398,272.50659 584.7446,272.50676 272.65955,272.50659 219.98017,415.30125 219.98,473.19468 Z"
         id="path4585"
         inkscape:connector-curvature="0"
         sodipodi:nodetypes="cccccccccccccc" />
    </g>
    <g
       inkscape:groupmode="layer"
       id="layer11"
       inkscape:label="Leaves"
       style="display:inline">
      <path
         style="fill:#006600;fill-rule:evenodd;stroke:none;stroke-width:1px;stroke-linecap:butt;stroke-linejoin:miter;stroke-opacity:1"
         d="m 218.62411,467.22923 1.35594,82.71589 c 39.85454,-119.01765 47.63357,-169.19216 244.75836,-176.95865 92.08414,3.5e-4 212.21403,-102.0058 212.21403,-195.94203 -363.4351,1.8e-4 -456.86204,-11.75885 -458.32833,290.18479 z"
         id="path4589"
         inkscape:connector-curvature="0"
         sodipodi:nodetypes="ccccc" />
      <path
         style="fill:#66cc00;fill-rule:evenodd;stroke:none;stroke-width:1px;stroke-linecap:butt;stroke-linejoin:miter;stroke-opacity:1"
         d="m 225.40412,383.69902 c -17.22748,-21.048 1.53274,-52.89185 -81.3602,-54.24021 C 22.856516,332.47923 18.272916,257.85164 1.6637757,215.55454 111.53222,198.67338 221.41628,181.7601 225.40412,383.69902 Z"
         id="path4591"
         inkscape:connector-curvature="0"
         sodipodi:nodetypes="cccc" />
      <circle
         r="33.900051"
         cy="559.97919"
         cx="381.34451"
         id="circle4595"
         style="fill:#ffffff;fill-opacity:1;stroke:none;stroke-width:14.5;stroke-miterlimit:4;stroke-dasharray:none;stroke-opacity:1" />
    </g>
  </g>
  <g
     style="display:inline"
     inkscape:label="V2.1"
     id="g4633"
     inkscape:groupmode="layer"
     transform="translate(0,-240.94488)">
    <g
       style="display:inline"
       inkscape:label="Berry"
       id="g4635"
       inkscape:groupmode="layer">
      <path
         sodipodi:nodetypes="ccccccccccccc"
         inkscape:connector-curvature="0"
         id="path4637"
         d="m 196.79956,984.00734 c -5.1402,42.80116 31.86631,72.45096 114.39392,67.43316 l 272.50713,0 c 82.6085,1.2067 159.45404,-8.015 158.32794,-158.32826 L 739.98714,615.21397 C 739.98676,500.96943 325.89786,478.30761 325.8978,615.21378 l 2.04185,139.36167 281.64148,-3.8e-4 -1.9e-4,71.55183 -336.4473,2e-4 1.3e-4,-324.97819 c -26.85069,54.15205 -67.52968,97.24147 -75.33137,166.63272 z"
         style="fill:#cc0000;fill-opacity:1;fill-rule:evenodd;stroke:none;stroke-width:1px;stroke-linecap:butt;stroke-linejoin:miter;stroke-opacity:1"
         inkscape:export-xdpi="90"
         inkscape:export-ydpi="90" />
    </g>
    <g
       style="display:inline"
       inkscape:label="Leaves"
       id="g4639"
       inkscape:groupmode="layer">
      <path
         sodipodi:nodetypes="cscc"
         inkscape:connector-curvature="0"
         id="path4641"
         d="m 198.1649,668.92806 c 0.26923,-0.90504 38.47164,-208.88076 293.25139,-208.88076 116.24075,0 248.01498,-128.81462 248.01498,-215.9009 -407.59354,2.04179 -541.26637,4.08646 -541.26637,424.78166 z"
         style="fill:#006600;fill-rule:evenodd;stroke:none;stroke-width:1px;stroke-linecap:butt;stroke-linejoin:miter;stroke-opacity:1"
         inkscape:export-xdpi="90"
         inkscape:export-ydpi="90" />
      <path
         sodipodi:nodetypes="cccc"
         inkscape:connector-curvature="0"
         id="path4643"
         d="M 222.26818,449.61463 C 202.92686,425.984 223.98899,390.23285 130.92494,388.71904 -7.2012382,388.71904 1.7013271,298.14582 1.7013271,244.5042 133.57027,244.5042 222.26818,263.72591 222.26818,449.61463 Z"
         style="fill:#66cc00;fill-rule:evenodd;stroke:none;stroke-width:1px;stroke-linecap:butt;stroke-linejoin:miter;stroke-opacity:1"
         inkscape:export-xdpi="90"
         inkscape:export-ydpi="90" />
      <circle
         style="fill:#ffffff;fill-opacity:1;stroke:none;stroke-width:14.5;stroke-miterlimit:4;stroke-dasharray:none;stroke-opacity:1"
         id="circle4645"
         cx="417.76065"
         cy="647.52472"
         r="38.05965"
         inkscape:export-xdpi="90"
         inkscape:export-ydpi="90" />
    </g>
  </g>
  <g
     style="display:inline"
     inkscape:label="Berry"
     id="g4617"
     inkscape:groupmode="layer"
     transform="translate(0,-240.94488)">
    <path
       sodipodi:nodetypes="cccccccccccccc"
       inkscape:connector-curvature="0"
       id="path4619"
       d="m 859.1372,1606.6952 c -2.66611,22.2005 -2.53429,42.8748 40.27206,40.2721 l 141.34704,0 c 42.8484,0.626 82.7075,-4.1572 82.1234,-82.1234 l 0,-161.0883 c 0,-49.7263 -214.78431,-56.1854 -214.78431,0 l 0,89.2303 146.08491,0 0,37.1134 -174.51225,0 0,-145.2952 c 0,-34.2919 70.75953,-116.8679 193.46385,-116.8679 -181.73823,0 -212.4154,83.1543 -212.4154,116.8679 z"
       style="opacity:0.70200004;fill:#b50000;fill-opacity:1;fill-rule:evenodd;stroke:#000000;stroke-width:2.5;stroke-linecap:butt;stroke-linejoin:miter;stroke-miterlimit:4;stroke-dasharray:none;stroke-opacity:1" />
  </g>
  <g
     inkscape:label="V3.0"
     id="g4615"
     inkscape:groupmode="layer"
     style="display:inline"
     transform="translate(0,-240.94488)">
    <g
       style="display:inline"
       inkscape:label="Leaves"
       id="g4621"
       inkscape:groupmode="layer">
      <path
         sodipodi:nodetypes="ccccc"
         inkscape:connector-curvature="0"
         id="path4623"
         d="m 859.92686,1392.7005 0.78964,48.1685 c 23.20866,-69.3081 27.73866,-98.5267 142.5314,-103.0491 53.6238,0 123.5799,-59.4019 123.5799,-114.1041 -167.90133,0 -270.14474,15.0066 -266.90094,168.9847 z"
         style="opacity:0.70200004;fill:#009100;fill-rule:evenodd;stroke:#000000;stroke-width:2.5;stroke-linecap:butt;stroke-linejoin:miter;stroke-miterlimit:4;stroke-dasharray:none;stroke-opacity:1" />
      <path
         sodipodi:nodetypes="cccc"
         inkscape:connector-curvature="0"
         id="path4625"
         d="m 868.61298,1317.6841 c -10.03214,-12.2569 0.89264,-30.8009 -47.37889,-31.5859 -70.57169,1.7589 -73.24099,-41.6996 -82.91306,-66.3305 63.98027,-9.8304 127.96967,-19.6797 130.29195,97.9164 z"
         style="opacity:0.70200004;fill:#009100;fill-rule:evenodd;stroke:#000000;stroke-width:2.5;stroke-linecap:butt;stroke-linejoin:miter;stroke-miterlimit:4;stroke-dasharray:none;stroke-opacity:1" />
      <circle
         style="opacity:0.70200004;fill:#ffffff;fill-opacity:1;stroke:#000000;stroke-width:2.5;stroke-miterlimit:4;stroke-dasharray:none;stroke-opacity:1"
         id="circle4627"
         cx="954.68463"
         cy="1435.3416"
         r="19.741203" />
    </g>
  </g>
  <g
     inkscape:groupmode="layer"
     id="layer7"
     inkscape:label="v1.0"
     style="display:inline;opacity:0.42699998"
     transform="translate(0,-240.94488)">
    <g
       style="display:inline"
       inkscape:groupmode="layer"
       id="g4500"
       inkscape:label="2">
      <g
         inkscape:groupmode="layer"
         id="g4502"
         inkscape:label="P-head"
         style="display:inline">
        <path
           sodipodi:nodetypes="sccccccsss"
           style="fill:#ffd42a;fill-opacity:1;fill-rule:evenodd;stroke:#ffffff;stroke-width:14.5;stroke-linecap:butt;stroke-linejoin:miter;stroke-miterlimit:4;stroke-dasharray:none;stroke-opacity:1"
           d="m 792.84047,-487.87499 c -47.42668,-0.41582 -66.55688,73.05511 -66.55688,73.05511 l -0.15302,108.59116 100.2872,5.61006 1.6108,-110.22692 c 0,0 98.871,-4.25907 110.6487,-4.46453 l 0,170.42884 78.27613,2 c 67.5661,1.72635 69.2954,-242.42124 4,-242.99372 z"
           id="path4504"
           inkscape:connector-curvature="0" />
        <circle
           r="18"
           cy="-221.88544"
           cx="986.25421"
           id="circle4506"
           style="fill:#ffffff;fill-opacity:1;stroke:#ffffff;stroke-width:14.5;stroke-miterlimit:4;stroke-dasharray:none;stroke-opacity:1" />
      </g>
      <g
         inkscape:groupmode="layer"
         id="layer9"
         inkscape:label="OLD">
        <g
           inkscape:label="1"
           id="g4439"
           inkscape:groupmode="layer"
           style="display:inline">
          <g
             style="display:inline"
             inkscape:label="P-head"
             id="g4441"
             inkscape:groupmode="layer">
            <path
               inkscape:connector-curvature="0"
               id="path4443"
               d="m 982.14304,387.5671 -0.8119,73.0294 c 0,0 134.87096,-0.2591 146.64866,-0.4645 l 0,170.4288 78.2761,2 c 67.5661,1.7264 69.2954,-242.4212 4,-242.9937 z"
               style="fill:#e46d43;fill-opacity:1;fill-rule:evenodd;stroke:#ffffff;stroke-width:14.5;stroke-linecap:butt;stroke-linejoin:miter;stroke-miterlimit:4;stroke-dasharray:none;stroke-opacity:1"
               sodipodi:nodetypes="ccccssc" />
            <circle
               style="fill:#ffffff;fill-opacity:1;stroke:#ffffff;stroke-width:14.5;stroke-miterlimit:4;stroke-dasharray:none;stroke-opacity:1"
               id="path4456"
               cx="1199.8068"
               cy="558.08612"
               r="18" />
            <path
               sodipodi:nodetypes="ccccssc"
               style="fill:#e46d43;fill-opacity:1;fill-rule:evenodd;stroke:#ffffff;stroke-width:14.5;stroke-linecap:butt;stroke-linejoin:miter;stroke-miterlimit:4;stroke-dasharray:none;stroke-opacity:1"
               d="m 1470.446,1268.8013 -0.8119,73.0294 c 0,0 134.871,-0.2591 146.6487,-0.4645 l 0,170.4288 78.2761,2 c 67.5661,1.7264 69.2954,-242.4212 4,-242.9937 z"
               id="path4647"
               inkscape:connector-curvature="0" />
          </g>
          <g
             style="display:inline"
             inkscape:label="G"
             id="g4445"
             inkscape:groupmode="layer">
            <path
               style="fill:#5e2750;fill-opacity:1;fill-rule:evenodd;stroke:#ffffff;stroke-width:14.5;stroke-linecap:butt;stroke-linejoin:miter;stroke-miterlimit:4;stroke-dasharray:none;stroke-opacity:1"
               d="m 897.67383,277.63672 c 0,0 -62.4668,5.51209 -62.4668,82.86133 l 0,276.99218 c 0,42.41923 25.74315,64.60352 48.70117,64.60352 l 192.5418,-2.40843 c 52.0836,0.009 62.7931,-40.06194 63.0031,-91.51344 l 0.6231,-152.66016 c 0.2635,-64.58724 -230.96798,-70.93164 -230.2344,3.09766 l 0.90234,90.93359 146.19926,3.19726 0,18.6791 -160.40959,-2.53709 -0.53576,-112.66537 c 0.0538,-45.21712 51.58655,-63.73047 122.27925,-63.73047 105.8721,0 123.1875,-114.84961 123.1875,-114.84961 z"
               id="path4447"
               inkscape:connector-curvature="0"
               sodipodi:nodetypes="cssccssccccccscc" />
            <circle
               style="fill:#ffffff;fill-opacity:1;stroke:#ffffff;stroke-width:8.50686646;stroke-miterlimit:4;stroke-dasharray:none;stroke-opacity:1"
               id="path4462"
               cx="976.88037"
               cy="481.24261"
               r="19.876968" />
            <path
               sodipodi:nodetypes="sssccssccccccscs"
               inkscape:connector-curvature="0"
               id="path4518"
               d="m 1450.1025,1165.1184 c -51.1206,29.7411 -89.6777,70.5502 -90.4609,147.8954 l -2.0707,204.5159 c -0.4295,42.4171 -1.1766,64.6035 21.7814,64.6035 l 192.5418,-2.4084 c 52.0836,0.01 62.7931,-40.0619 63.0031,-91.5134 l 0.6231,-152.6602 c 0.2635,-64.5872 -230.968,-70.9316 -230.2344,3.0977 l 0.9023,90.9336 146.1993,3.1972 0,18.6791 -160.4096,-2.5371 -0.5358,-112.6653 c 0.054,-45.2172 50.5123,-70.1762 121.205,-70.1762 105.8721,0 124.2618,-108.4039 124.2618,-108.4039 0,0 -132.6709,-24.0531 -186.8064,7.4421 z"
               style="fill:#b50000;fill-opacity:1;fill-rule:evenodd;stroke:#ffffff;stroke-width:14.5;stroke-linecap:butt;stroke-linejoin:miter;stroke-miterlimit:4;stroke-dasharray:none;stroke-opacity:1" />
            <circle
               r="19.876968"
               cy="1359.9213"
               cx="1474.7206"
               id="circle4520"
               style="fill:#ffffff;fill-opacity:1;stroke:#ffffff;stroke-width:8.50686646;stroke-miterlimit:4;stroke-dasharray:none;stroke-opacity:1" />
            <path
               style="fill:#339900;fill-opacity:1;fill-rule:evenodd;stroke:#ffffff;stroke-width:14.5;stroke-linecap:butt;stroke-linejoin:miter;stroke-miterlimit:4;stroke-dasharray:none;stroke-opacity:1"
               d="m 380.20081,1300.0135 c -51.1206,29.7411 -104.93726,85.8097 -105.72037,163.1549 l -2.0707,204.5159 c -0.42947,42.4171 14.08287,49.344 37.04087,49.344 l 192.5418,-2.4084 c 52.0836,0.01 62.7931,-40.0619 63.0031,-91.5134 l 0.6231,-152.6602 c 0.2635,-64.5872 -230.968,-70.9316 -230.2344,3.0977 l 0.9023,90.9336 146.1993,3.1972 0,18.6791 -160.4096,-2.5371 -0.5358,-112.6653 c 0.054,-45.2172 50.5123,-70.1762 121.205,-70.1762 105.8721,0 124.2618,-108.4039 124.2618,-108.4039 0,0 -132.6709,-24.0531 -186.8064,7.4421 z"
               id="path4655"
               inkscape:connector-curvature="0"
               sodipodi:nodetypes="sssccssccccccscs" />
            <circle
               style="fill:#ffffff;fill-opacity:1;stroke:#ffffff;stroke-width:8.50686646;stroke-miterlimit:4;stroke-dasharray:none;stroke-opacity:1"
               id="circle4657"
               cx="501.92953"
               cy="1745.2228"
               r="19.876968" />
          </g>
          <g
             inkscape:groupmode="layer"
             id="layer8"
             inkscape:label="leaf">
            <path
               style="opacity:0.70200004;fill:#007d00;fill-opacity:1;fill-rule:evenodd;stroke:none;stroke-width:0.73584872px;stroke-linecap:butt;stroke-linejoin:miter;stroke-opacity:1"
               d="m 870.90973,1332.0471 c 0,0 -10.44069,-40.6474 -72.78882,-37.7813 -30.45819,1.4001 -53.11672,-51.0655 -53.11672,-51.0655 0,0 69.6083,-30.7846 92.28793,-8.8242 35.39231,34.27 33.61761,97.671 33.61761,97.671 z"
               id="path4523"
               inkscape:connector-curvature="0"
               sodipodi:nodetypes="cscsc" />
            <path
               style="opacity:0.70200004;fill:#007d00;fill-opacity:1;fill-rule:evenodd;stroke:none;stroke-width:1px;stroke-linecap:butt;stroke-linejoin:miter;stroke-opacity:1"
               d="m 861.43263,1432.345 18.75587,-1.28 c 0.21058,-42.1118 14.28589,-94.103 119.0666,-96.0821 106.5765,-2.013 125.163,-100.3946 125.163,-100.3946 0,0 -100.6357,-33.1163 -191.54455,8.283 -84.88637,38.6567 -71.44092,189.4737 -71.44092,189.4737 z"
               id="path4525"
               inkscape:connector-curvature="0"
               sodipodi:nodetypes="ccscsc" />
          </g>
          <g
             style="display:inline"
             inkscape:label="P-tail"
             id="g4449"
             inkscape:groupmode="layer">
            <path
               sodipodi:nodetypes="csccscc"
               inkscape:connector-curvature="0"
               id="path4451"
               d="m 1057.8236,553.42692 2.4763,152.73522 c 0.883,54.46281 -1.4357,123.52791 -111.27005,121.29511 l 2.4762,-122.79389 c 46.3982,0 46.963,-4.29006 47.1057,-20.60068 l 1.1599,-132.63577 z"
               style="fill:#e46d43;fill-opacity:1;fill-rule:evenodd;stroke:#ffffff;stroke-width:14.5;stroke-linecap:butt;stroke-linejoin:miter;stroke-miterlimit:4;stroke-dasharray:none;stroke-opacity:1" />
            <path
               style="fill:#e46d43;fill-opacity:1;fill-rule:evenodd;stroke:#ffffff;stroke-width:14.5;stroke-linecap:butt;stroke-linejoin:miter;stroke-miterlimit:4;stroke-dasharray:none;stroke-opacity:1"
               d="m 1546.1266,1434.6612 2.4763,152.7352 c 0.883,54.4628 -1.4357,123.5279 -111.2701,121.2951 l 2.4762,-122.7939 c 46.3982,0 46.963,-4.2901 47.1057,-20.6007 l 1.1599,-132.6358 z"
               id="path4649"
               inkscape:connector-curvature="0"
               sodipodi:nodetypes="csccscc" />
          </g>
        </g>
        <g
           style="display:inline"
           inkscape:groupmode="layer"
           id="g4482"
           inkscape:label="3">
          <g
             inkscape:groupmode="layer"
             id="g4484"
             inkscape:label="P-head"
             style="display:inline">
            <path
               sodipodi:nodetypes="sccccccsss"
               style="fill:#aa312a;fill-opacity:1;fill-rule:evenodd;stroke:#ffffff;stroke-width:14.5;stroke-linecap:butt;stroke-linejoin:miter;stroke-miterlimit:4;stroke-dasharray:none;stroke-opacity:1"
               d="m 150.71458,-468.96204 c -47.42668,-0.41582 -66.556884,73.05511 -66.556884,73.05511 l -0.15302,108.59116 100.287204,5.61006 1.6108,-110.22692 c 0,0 98.871,-4.25907 110.6487,-4.46453 l 0,170.42884 78.2761,2 c 67.5661,1.72635 69.2954,-242.42124 4,-242.99372 z"
               id="path4486"
               inkscape:connector-curvature="0" />
            <circle
               r="18"
               cy="-294.68811"
               cx="354.91837"
               id="circle4488"
               style="fill:#ffffff;fill-opacity:1;stroke:#ffffff;stroke-width:14.5;stroke-miterlimit:4;stroke-dasharray:none;stroke-opacity:1" />
          </g>
          <g
             inkscape:groupmode="layer"
             id="g4490"
             inkscape:label="G"
             style="display:inline">
            <path
               sodipodi:nodetypes="cssscccssccccccccccccscc"
               inkscape:connector-curvature="0"
               id="path4492"
               d="m 54.592206,-590.20364 c 0,0 -62.4668003,5.51209 -62.4668003,82.86133 l 0,276.99218 c 0,42.41923 25.7431503,64.60352 48.7011703,64.60352 l 177.765604,0 0,1.44141 c 13.6955,-0.11747 47.9082,-2.81446 47.9082,-2.81446 34.4822,0.009 29.7077,-52.48626 29.8711,-92.54882 l 0.6231,-152.66016 c 0.2635,-64.58724 -230.967984,-70.93164 -230.234404,3.09766 l 0.90234,90.93359 146.199264,3.19726 0,14.28321 1.414,0.0391 -1.414,11.30469 0,4.28515 -0.5411,0.0391 0.5411,-4.32422 0,-11.34375 -158.945354,-4.35352 -2,-106.45312 c 0.0538,-45.21712 51.586554,-63.73047 122.279254,-63.73047 105.8721,0 123.1875,-114.84961 123.1875,-114.84961 z"
               style="fill:#57b940;fill-opacity:1;fill-rule:evenodd;stroke:#ffffff;stroke-width:14.5;stroke-linecap:butt;stroke-linejoin:miter;stroke-miterlimit:4;stroke-dasharray:none;stroke-opacity:1" />
            <circle
               r="19.876968"
               cy="-375.80768"
               cx="133.79875"
               id="circle4494"
               style="fill:#ffffff;fill-opacity:1;stroke:#ffffff;stroke-width:8.50686646;stroke-miterlimit:4;stroke-dasharray:none;stroke-opacity:1" />
          </g>
          <g
             inkscape:groupmode="layer"
             id="g4496"
             inkscape:label="P-tail"
             style="display:inline">
            <path
               style="fill:#aa312a;fill-opacity:1;fill-rule:evenodd;stroke:#ffffff;stroke-width:14.5;stroke-linecap:butt;stroke-linejoin:miter;stroke-miterlimit:4;stroke-dasharray:none;stroke-opacity:1"
               d="m 251.81162,-306.68972 2.4763,152.73522 c 0.883,54.462852 -25.4357,123.527952 -169.270138,123.295142 l 2.47625,-122.793922 c 46.398188,0 46.963008,-4.29006 47.105678,-20.60068 l 1.15996,-132.63577 z"
               id="path4498"
               inkscape:connector-curvature="0"
               sodipodi:nodetypes="csccscc" />
          </g>
        </g>
      </g>
      <g
         inkscape:groupmode="layer"
         id="g4508"
         inkscape:label="G"
         style="display:inline">
        <path
           sodipodi:nodetypes="cssscccssccccccccccccscc"
           inkscape:connector-curvature="0"
           id="path4510"
           d="m 696.7181,-598.32652 c 0,0 -62.4668,5.51209 -62.4668,82.86133 l 0,276.99218 c 0,42.41923 25.74315,64.60352 48.70117,64.60352 l 177.7656,0 0,1.44141 c 13.6955,-0.11747 47.9082,-2.81446 47.9082,-2.81446 34.4822,0.009 29.7077,-52.48626 29.8711,-92.54882 l 0.6231,-152.66016 c 0.2635,-64.58724 -230.96798,-70.93164 -230.2344,3.09766 l 0.90234,90.93359 146.19926,3.19726 0,14.28321 1.414,0.0391 -1.414,11.30469 0,4.28515 -0.5411,0.0391 0.5411,-4.32422 0,-11.34375 -158.94535,-4.35352 -2,-106.45312 c 0.0538,-45.21712 51.58655,-63.73047 122.27925,-63.73047 105.8721,0 123.1875,-114.84961 123.1875,-114.84961 z"
           style="fill:#007e7e;fill-opacity:1;fill-rule:evenodd;stroke:#ffffff;stroke-width:14.5;stroke-linecap:butt;stroke-linejoin:miter;stroke-miterlimit:4;stroke-dasharray:none;stroke-opacity:1" />
        <circle
           r="19.876968"
           cy="-303.005"
           cx="765.13458"
           id="circle4512"
           style="fill:#ffffff;fill-opacity:1;stroke:#ffffff;stroke-width:8.50686646;stroke-miterlimit:4;stroke-dasharray:none;stroke-opacity:1" />
      </g>
      <g
         inkscape:groupmode="layer"
         id="g4514"
         inkscape:label="P-tail"
         style="display:inline">
        <path
           style="fill:#ffd42a;fill-opacity:1;fill-rule:evenodd;stroke:#ffffff;stroke-width:14.5;stroke-linecap:butt;stroke-linejoin:miter;stroke-miterlimit:4;stroke-dasharray:none;stroke-opacity:1"
           d="m 858.86977,-325.60267 2.4763,152.73522 c 0.883,54.46285 -25.4357,123.527955 -169.27013,123.295145 l 2.47625,-122.793925 c 46.39819,0 46.96301,-4.29006 47.10568,-20.60068 l 1.15995,-132.63577 z"
           id="path4516"
           inkscape:connector-curvature="0"
           sodipodi:nodetypes="csccscc" />
      </g>
    </g>
    <g
       inkscape:groupmode="layer"
       id="layer4"
       inkscape:label="P-head"
       style="display:inline">
      <path
         style="fill:#ffd42a;fill-opacity:1;fill-rule:evenodd;stroke:#ffffff;stroke-width:0.1;stroke-linecap:butt;stroke-linejoin:miter;stroke-miterlimit:4;stroke-dasharray:none;stroke-opacity:1"
         d="m -308.57234,453.94602 c -49.5574,0 -67.05469,67.05468 -67.05469,67.05468 73.98377,0 148.01352,0.74464 221.97852,-0.49023 l 0,170.42773 96.417969,0 c 70.621793,0 68.228793,-236.99218 0,-236.99218 l -251.341799,0 z m 221.412109,127.99609 a 27.519249,27.519249 0 0 1 27.51953,27.51758 27.519249,27.519249 0 0 1 -27.51953,27.51953 27.519249,27.519249 0 0 1 -27.519529,-27.51953 27.519249,27.519249 0 0 1 27.519529,-27.51758 z"
         id="path4393"
         inkscape:connector-curvature="0" />
    </g>
    <g
       inkscape:groupmode="layer"
       id="layer3"
       inkscape:label="G"
       style="display:inline">
      <path
         style="fill:#007e7e;fill-opacity:1;fill-rule:evenodd;stroke:none;stroke-width:12.80000019;stroke-linecap:butt;stroke-linejoin:miter;stroke-miterlimit:4;stroke-dasharray:none;stroke-opacity:1"
         d="m -473.50956,349.77137 c 0,0 -82.86329,5.51208 -82.86329,82.86132 l 0,276.99219 c 0,42.41923 34.14919,64.60352 64.60352,64.60352 l 235.81055,0 0,1.4414 c 18.16738,-0.11747 63.55078,-2.81445 63.55078,-2.81445 45.74135,0.009 39.40816,-52.48626 39.625,-92.54883 l 0.82617,-152.66015 c 0.34958,-64.58724 -311.69086,-70.93164 -310.7168,3.09765 l 1.19531,90.9336 241.69141,1.19726 0,29.91211 -0.7168,0.0391 -0.0586,-3.6289 -268.43555,-2.39258 0,-118.45312 c 2.72441,-45.21712 39.24846,-69.73047 175.47266,-69.73047 140.44162,0 163.41016,-108.84961 163.41016,-108.84961 l -323.39453,0 z m 80.55468,173.63086 a 31.108717,31.108717 0 0 1 31.10742,31.10742 31.108717,31.108717 0 0 1 -31.10742,31.10937 31.108717,31.108717 0 0 1 -31.10937,-31.10937 31.108717,31.108717 0 0 1 31.10937,-31.10742 z"
         id="path4380"
         inkscape:connector-curvature="0" />
    </g>
    <g
       inkscape:groupmode="layer"
       id="layer5"
       inkscape:label="P-tail"
       style="display:inline">
      <path
         style="fill:#ffd42a;fill-opacity:1;fill-rule:evenodd;stroke:#ffffff;stroke-width:0.1;stroke-linecap:butt;stroke-linejoin:miter;stroke-miterlimit:4;stroke-dasharray:none;stroke-opacity:1"
         d="m -236.03257,633.29972 0,246.45273 c 0,80.50889 -26.32276,161.89415 -174.68741,161.55005 l 0,-160.80919 c 47.85956,0 50.99643,-27.03471 51.14357,-51.14357 l 1.19649,-196.05003 z"
         id="path4404"
         inkscape:connector-curvature="0"
         sodipodi:nodetypes="csccscc" />
    </g>
  </g>
</svg>
